<mxfile host="app.diagrams.net" modified="2023-11-07T08:22:43.253Z" agent="Mozilla/5.0 (Windows NT 10.0; Win64; x64) AppleWebKit/537.36 (KHTML, like Gecko) Chrome/119.0.0.0 Safari/537.36 Edg/119.0.0.0" etag="PqyH_MIVGAqnKWPEAvFE" version="22.0.8" type="device">
  <diagram name="Sayfa -1" id="EVGxpF09j1gA-2RbMjRz">
    <mxGraphModel dx="1423" dy="807" grid="1" gridSize="10" guides="1" tooltips="1" connect="1" arrows="1" fold="1" page="1" pageScale="1" pageWidth="827" pageHeight="1169" math="0" shadow="0">
      <root>
        <mxCell id="0" />
        <mxCell id="1" parent="0" />
        <mxCell id="oIalInff0dngOWjOW0hy-5" value="" style="edgeStyle=orthogonalEdgeStyle;rounded=0;orthogonalLoop=1;jettySize=auto;html=1;" edge="1" parent="1" source="oIalInff0dngOWjOW0hy-1" target="oIalInff0dngOWjOW0hy-4">
          <mxGeometry relative="1" as="geometry" />
        </mxCell>
        <mxCell id="oIalInff0dngOWjOW0hy-1" value="START" style="rounded=1;whiteSpace=wrap;html=1;arcSize=50;" vertex="1" parent="1">
          <mxGeometry x="170" y="20" width="120" height="60" as="geometry" />
        </mxCell>
        <mxCell id="oIalInff0dngOWjOW0hy-20" value="" style="edgeStyle=orthogonalEdgeStyle;rounded=0;orthogonalLoop=1;jettySize=auto;html=1;" edge="1" parent="1" source="oIalInff0dngOWjOW0hy-4" target="oIalInff0dngOWjOW0hy-19">
          <mxGeometry relative="1" as="geometry" />
        </mxCell>
        <mxCell id="oIalInff0dngOWjOW0hy-4" value="fact = 1&lt;br&gt;n=1&lt;br&gt;i=0" style="rounded=0;whiteSpace=wrap;html=1;" vertex="1" parent="1">
          <mxGeometry x="170" y="100" width="120" height="60" as="geometry" />
        </mxCell>
        <mxCell id="oIalInff0dngOWjOW0hy-22" value="" style="edgeStyle=orthogonalEdgeStyle;rounded=0;orthogonalLoop=1;jettySize=auto;html=1;" edge="1" parent="1" source="oIalInff0dngOWjOW0hy-19" target="oIalInff0dngOWjOW0hy-21">
          <mxGeometry relative="1" as="geometry" />
        </mxCell>
        <mxCell id="oIalInff0dngOWjOW0hy-19" value="INPUT&lt;br&gt;x" style="shape=parallelogram;perimeter=parallelogramPerimeter;whiteSpace=wrap;html=1;fixedSize=1;rounded=0;" vertex="1" parent="1">
          <mxGeometry x="170" y="180" width="120" height="60" as="geometry" />
        </mxCell>
        <mxCell id="oIalInff0dngOWjOW0hy-24" value="T" style="edgeStyle=orthogonalEdgeStyle;rounded=0;orthogonalLoop=1;jettySize=auto;html=1;" edge="1" parent="1" source="oIalInff0dngOWjOW0hy-21">
          <mxGeometry relative="1" as="geometry">
            <mxPoint x="330" y="350" as="targetPoint" />
          </mxGeometry>
        </mxCell>
        <mxCell id="oIalInff0dngOWjOW0hy-46" value="F" style="edgeStyle=orthogonalEdgeStyle;rounded=0;orthogonalLoop=1;jettySize=auto;html=1;" edge="1" parent="1" source="oIalInff0dngOWjOW0hy-21" target="oIalInff0dngOWjOW0hy-45">
          <mxGeometry relative="1" as="geometry" />
        </mxCell>
        <mxCell id="oIalInff0dngOWjOW0hy-21" value="n&amp;lt;=7" style="rhombus;whiteSpace=wrap;html=1;rounded=0;" vertex="1" parent="1">
          <mxGeometry x="190" y="310" width="80" height="80" as="geometry" />
        </mxCell>
        <mxCell id="oIalInff0dngOWjOW0hy-33" value="" style="edgeStyle=orthogonalEdgeStyle;rounded=0;orthogonalLoop=1;jettySize=auto;html=1;" edge="1" parent="1" target="oIalInff0dngOWjOW0hy-36">
          <mxGeometry relative="1" as="geometry">
            <mxPoint x="330" y="350" as="sourcePoint" />
          </mxGeometry>
        </mxCell>
        <mxCell id="oIalInff0dngOWjOW0hy-35" value="T" style="edgeStyle=orthogonalEdgeStyle;rounded=0;orthogonalLoop=1;jettySize=auto;html=1;" edge="1" parent="1" source="oIalInff0dngOWjOW0hy-36" target="oIalInff0dngOWjOW0hy-38">
          <mxGeometry relative="1" as="geometry" />
        </mxCell>
        <mxCell id="oIalInff0dngOWjOW0hy-43" value="F" style="edgeStyle=orthogonalEdgeStyle;rounded=0;orthogonalLoop=1;jettySize=auto;html=1;" edge="1" parent="1" source="oIalInff0dngOWjOW0hy-36" target="oIalInff0dngOWjOW0hy-41">
          <mxGeometry relative="1" as="geometry" />
        </mxCell>
        <mxCell id="oIalInff0dngOWjOW0hy-36" value="i&amp;lt;n" style="rhombus;whiteSpace=wrap;html=1;" vertex="1" parent="1">
          <mxGeometry x="290" y="420" width="80" height="80" as="geometry" />
        </mxCell>
        <mxCell id="oIalInff0dngOWjOW0hy-37" value="" style="edgeStyle=orthogonalEdgeStyle;rounded=0;orthogonalLoop=1;jettySize=auto;html=1;" edge="1" parent="1" source="oIalInff0dngOWjOW0hy-38" target="oIalInff0dngOWjOW0hy-40">
          <mxGeometry relative="1" as="geometry" />
        </mxCell>
        <mxCell id="oIalInff0dngOWjOW0hy-38" value="fact = fact * n" style="whiteSpace=wrap;html=1;" vertex="1" parent="1">
          <mxGeometry x="430" y="430" width="120" height="60" as="geometry" />
        </mxCell>
        <mxCell id="oIalInff0dngOWjOW0hy-39" style="edgeStyle=orthogonalEdgeStyle;rounded=0;orthogonalLoop=1;jettySize=auto;html=1;exitX=0.5;exitY=0;exitDx=0;exitDy=0;" edge="1" parent="1" source="oIalInff0dngOWjOW0hy-40">
          <mxGeometry relative="1" as="geometry">
            <mxPoint x="330" y="386" as="targetPoint" />
            <Array as="points">
              <mxPoint x="660" y="386" />
              <mxPoint x="471" y="386" />
            </Array>
          </mxGeometry>
        </mxCell>
        <mxCell id="oIalInff0dngOWjOW0hy-40" value="i++" style="whiteSpace=wrap;html=1;" vertex="1" parent="1">
          <mxGeometry x="600" y="430" width="120" height="60" as="geometry" />
        </mxCell>
        <mxCell id="oIalInff0dngOWjOW0hy-44" style="edgeStyle=orthogonalEdgeStyle;rounded=0;orthogonalLoop=1;jettySize=auto;html=1;exitX=0.5;exitY=1;exitDx=0;exitDy=0;" edge="1" parent="1" source="oIalInff0dngOWjOW0hy-41">
          <mxGeometry relative="1" as="geometry">
            <mxPoint x="240" y="260" as="targetPoint" />
            <Array as="points">
              <mxPoint x="380" y="630" />
              <mxPoint x="790" y="630" />
              <mxPoint x="790" y="260" />
            </Array>
          </mxGeometry>
        </mxCell>
        <mxCell id="oIalInff0dngOWjOW0hy-41" value="result = pow(-1, n+1)*pow(x,n)/fact" style="whiteSpace=wrap;html=1;" vertex="1" parent="1">
          <mxGeometry x="270" y="550" width="220" height="60" as="geometry" />
        </mxCell>
        <mxCell id="oIalInff0dngOWjOW0hy-48" value="" style="edgeStyle=orthogonalEdgeStyle;rounded=0;orthogonalLoop=1;jettySize=auto;html=1;" edge="1" parent="1" source="oIalInff0dngOWjOW0hy-45" target="oIalInff0dngOWjOW0hy-47">
          <mxGeometry relative="1" as="geometry" />
        </mxCell>
        <mxCell id="oIalInff0dngOWjOW0hy-45" value="OUTPUT&lt;br&gt;result" style="shape=parallelogram;perimeter=parallelogramPerimeter;whiteSpace=wrap;html=1;fixedSize=1;rounded=0;" vertex="1" parent="1">
          <mxGeometry x="90" y="470" width="120" height="60" as="geometry" />
        </mxCell>
        <mxCell id="oIalInff0dngOWjOW0hy-47" value="END" style="rounded=1;whiteSpace=wrap;html=1;arcSize=50;" vertex="1" parent="1">
          <mxGeometry x="90" y="610" width="120" height="60" as="geometry" />
        </mxCell>
      </root>
    </mxGraphModel>
  </diagram>
</mxfile>
